<svg
        version="1.0"
        xmlns="http://www.w3.org/2000/svg"
        width="1800pt"
        height="1800pt"
        viewBox="0 0 1588.000000 1585.000000"
        preserveAspectRatio="xMidYMid meet">
    <g
        transform="translate(0.000000,1585.000000) scale(0.100000,-0.100000)"
        fill="#000000"
        stroke="none">

<path d="M0 15654 l0 -196 28 17 c61 40 100 77 115 107 14 31 37 178 37 241
l0 27 -90 0 -90 0 0 -196z"/>
<path d="M856 15833 c-3 -10 -39 -142 -81 -293 -42 -151 -108 -383 -147 -515
-121 -414 -138 -477 -153 -575 -20 -129 -19 -181 10 -430 26 -229 35 -274 91
-470 20 -69 42 -143 48 -165 6 -22 15 -39 21 -38 5 1 18 35 28 75 10 40 35
132 57 203 21 72 55 195 75 275 20 80 54 204 76 275 23 72 51 164 64 205 40
132 213 674 325 1020 59 184 113 354 120 378 6 24 14 50 17 58 4 12 -35 14
-270 14 -254 0 -276 -1 -281 -17z"/>
<path d="M2475 15838 c2 -7 20 -71 40 -143 54 -200 122 -354 183 -417 19 -20
38 -35 42 -33 4 3 3 22 -3 44 -9 32 -6 65 17 181 22 117 56 341 56 372 0 4
-76 8 -170 8 -131 0 -168 -3 -165 -12z"/>
<path d="M4110 15829 c0 -46 55 -262 110 -434 81 -250 105 -338 160 -590 59
-268 66 -330 50 -426 -28 -163 -70 -242 -274 -517 -77 -105 -187 -265 -244
-356 -57 -91 -153 -236 -214 -323 -132 -189 -319 -471 -377 -567 -73 -123
-132 -303 -146 -446 -3 -36 -10 -104 -16 -152 -5 -48 -13 -208 -19 -355 -5
-147 -16 -304 -24 -348 -37 -207 -103 -403 -189 -565 -123 -233 -178 -345
-197 -408 -26 -82 -130 -550 -130 -583 0 -13 -18 -76 -40 -139 -46 -131 -164
-540 -240 -835 -29 -110 -73 -274 -97 -365 -77 -282 -82 -302 -103 -407 -11
-56 -27 -185 -36 -287 -23 -267 -7 -375 91 -621 60 -152 113 -313 160 -485 75
-279 77 -289 84 -610 l7 -295 57 -195 c76 -257 136 -431 214 -620 122 -293
193 -417 382 -665 260 -340 531 -736 753 -1100 211 -346 251 -408 385 -600
208 -299 326 -482 444 -691 62 -110 164 -289 227 -399 231 -402 268 -479 320
-665 58 -204 112 -461 132 -620 6 -52 13 -110 16 -127 l5 -33 319 0 c176 0
320 2 320 5 0 2 -79 211 -175 464 -227 599 -231 613 -265 1006 -24 280 -34
325 -102 445 -81 145 -341 424 -608 655 -243 209 -304 282 -505 595 -147 230
-275 418 -393 580 -51 69 -149 204 -219 300 -70 96 -150 207 -178 245 -97 133
-412 570 -443 617 -41 60 -109 197 -133 265 -10 30 -30 111 -44 181 -15 70
-42 188 -60 262 -56 222 -57 239 -46 468 20 391 11 461 -89 682 -109 241 -143
365 -165 608 -20 217 -19 475 5 752 11 129 24 296 30 370 30 369 42 440 115
640 29 80 84 247 124 372 111 352 154 444 319 680 139 198 194 291 274 453
129 264 167 381 243 755 68 336 71 348 110 480 51 172 241 643 340 845 46 94
136 265 200 380 63 116 174 327 246 470 170 341 180 376 187 678 2 123 -1 273
-7 345 -24 265 -132 758 -257 1170 l-25 82 -185 0 c-181 0 -184 0 -184 -21z"/>
<path d="M5364 15808 c4 -24 15 -128 26 -233 61 -573 76 -630 248 -930 114
-199 125 -229 125 -335 -1 -103 -19 -156 -106 -309 -54 -96 -139 -265 -339
-681 -269 -557 -493 -1116 -607 -1515 -33 -115 -90 -316 -126 -445 -104 -365
-185 -620 -215 -680 -71 -140 -151 -229 -435 -481 -323 -287 -411 -387 -542
-609 -183 -312 -274 -473 -307 -538 -66 -129 -116 -382 -116 -587 0 -89 10
-96 54 -35 21 29 63 80 94 114 31 34 111 129 177 211 152 189 417 499 700 820
365 414 413 478 855 1139 131 196 194 331 255 548 160 570 238 836 266 908 17
47 102 222 187 390 259 510 273 540 373 818 99 277 184 425 354 621 130 150
175 248 175 382 0 67 -8 105 -59 271 -33 106 -102 333 -155 504 -53 172 -125
390 -162 485 -36 96 -68 182 -71 192 -5 16 -29 17 -330 17 l-324 0 5 -42z"/>
<path d="M8441 15803 c26 -62 41 -87 169 -278 137 -206 332 -542 381 -659 48
-117 73 -208 99 -371 28 -170 53 -267 100 -387 43 -108 234 -487 365 -723 135
-243 189 -395 221 -625 14 -97 15 -156 8 -385 -5 -148 -9 -387 -8 -530 0 -298
12 -376 85 -577 102 -281 123 -378 134 -598 4 -80 13 -148 26 -190 22 -73 85
-194 132 -254 58 -76 257 -295 415 -457 260 -268 311 -345 361 -545 17 -66 44
-153 62 -194 29 -70 32 -86 40 -255 5 -99 13 -232 19 -295 5 -63 12 -191 16
-285 5 -161 4 -175 -20 -268 -28 -110 -61 -176 -298 -603 -95 -171 -171 -295
-205 -335 -536 -629 -806 -988 -915 -1216 -30 -63 -69 -176 -103 -293 -133
-462 -137 -498 -115 -1045 12 -277 25 -382 67 -510 24 -75 239 -578 386 -905
35 -80 106 -236 156 -348 50 -111 120 -275 155 -365 88 -223 237 -528 272
-556 37 -29 47 -16 52 65 9 137 -51 579 -108 806 -69 270 -236 750 -361 1036
-155 352 -192 537 -154 767 20 123 35 165 207 589 219 539 219 541 263 831 21
140 59 253 134 402 103 202 141 267 180 308 102 107 202 259 411 625 234 409
258 467 369 903 l61 238 0 158 c0 265 -59 535 -187 861 -73 186 -157 343 -593
1115 -396 701 -394 696 -440 1060 -40 314 -50 472 -50 805 0 179 5 414 12 523
21 358 -3 462 -219 942 -185 409 -249 525 -437 789 -59 82 -128 188 -156 235
-81 142 -80 140 -350 926 l-38 110 -311 3 -310 2 20 -47z"/>
<path d="M10123 15718 c7 -178 44 -328 147 -605 75 -200 215 -513 230 -513 3
0 16 75 29 168 12 92 27 191 32 221 19 115 10 315 -33 674 l-22 187 -194 0
-195 0 6 -132z"/>
<path d="M11031 15778 c-7 -40 -17 -89 -22 -108 -5 -19 -27 -123 -50 -230 -48
-231 -89 -407 -135 -585 -45 -174 -143 -611 -160 -710 -20 -119 -17 -242 11
-430 29 -190 53 -293 97 -415 29 -81 213 -474 292 -625 20 -38 66 -155 102
-259 76 -221 178 -480 259 -656 157 -344 232 -474 254 -440 17 25 26 158 26
375 l0 210 -43 148 c-71 244 -120 357 -235 536 -71 113 -111 195 -132 276 -25
95 -35 302 -38 737 -2 326 1 435 16 573 27 264 45 389 79 535 16 74 37 167 46
205 20 90 22 409 4 630 -7 88 -15 193 -18 233 l-6 72 -167 0 -167 0 -13 -72z"/>
<path d="M11991 15803 c-6 -27 -22 -95 -36 -153 -21 -89 -37 -159 -81 -360
-27 -120 -34 -282 -34 -742 0 -552 5 -611 71 -863 165 -633 148 -538 259
-1450 11 -93 35 -280 52 -415 33 -260 39 -415 18 -531 -6 -35 -65 -260 -130
-499 -65 -239 -124 -462 -131 -495 -7 -34 -12 -121 -12 -200 0 -124 6 -169 47
-385 26 -135 53 -279 61 -320 7 -41 36 -199 65 -350 28 -151 60 -323 71 -382
36 -192 110 -480 129 -501 11 -12 46 86 86 240 47 186 62 404 63 939 1 490 3
510 101 809 33 99 64 201 70 228 22 100 30 236 20 329 -28 260 -40 467 -40
716 0 272 -2 309 -41 642 -34 299 -67 479 -139 764 -107 421 -102 359 -97
1279 3 436 10 866 15 957 6 91 16 253 22 360 10 198 27 381 36 413 5 16 -10
17 -214 17 l-220 0 -11 -47z"/>
<path d="M13576 15778 c-44 -199 -45 -234 -11 -520 35 -292 51 -393 87 -533
52 -208 56 -228 69 -333 13 -106 7 -203 -26 -482 -21 -177 -30 -226 -115 -650
-100 -494 -110 -562 -110 -735 0 -304 39 -451 189 -720 87 -155 176 -338 275
-568 145 -333 157 -402 127 -717 -11 -118 -28 -289 -36 -380 -26 -281 -36
-372 -52 -460 -18 -103 -91 -333 -103 -325 -10 6 -85 136 -129 222 -46 92
-105 245 -136 353 -18 65 -59 159 -129 295 -84 163 -114 233 -161 380 -41 128
-74 211 -117 290 -63 117 -94 162 -105 151 -35 -35 -6 -690 43 -977 39 -225
80 -322 304 -714 78 -137 155 -273 171 -301 77 -136 215 -495 255 -662 22 -93
26 -279 8 -372 -41 -216 -49 -241 -101 -345 -44 -87 -92 -157 -182 -265 -148
-177 -233 -309 -380 -591 -65 -124 -123 -217 -202 -324 -116 -156 -187 -286
-213 -390 -8 -33 -20 -109 -25 -170 -40 -436 -39 -564 5 -890 34 -255 36 -417
5 -568 -12 -59 -96 -441 -187 -850 -91 -408 -174 -789 -184 -847 -31 -181 -39
-310 -50 -825 -15 -651 -8 -605 -170 -1215 -74 -278 -160 -615 -184 -722 -4
-17 11 -18 213 -18 l217 0 22 118 c11 64 71 362 132 662 61 300 117 592 126
650 9 64 18 246 24 470 12 471 31 617 204 1505 19 99 60 311 91 470 31 160 78
403 105 541 91 461 111 608 140 994 6 80 15 195 21 255 5 61 9 139 9 175 0 52
6 78 31 130 81 171 136 326 188 537 36 144 62 204 129 298 77 107 136 163 422
401 282 235 349 300 405 395 58 99 70 149 69 284 0 148 -22 271 -76 435 -56
168 -126 301 -265 507 l-116 172 50 63 c95 121 232 341 289 464 71 153 75 181
87 664 17 680 18 665 -55 979 -57 250 -99 367 -221 621 -88 184 -108 276 -87
402 7 41 49 170 97 298 46 123 95 262 109 310 37 126 41 274 16 535 -25 247
-37 387 -52 585 -22 296 -41 449 -71 590 -55 252 -68 342 -69 446 0 123 51
489 118 847 l9 47 -362 0 -363 0 -16 -72z"/>
<path d="M15714 15833 c2 -10 14 -63 26 -118 23 -104 46 -153 105 -220 l35
-40 0 198 0 197 -86 0 c-76 0 -85 -2 -80 -17z"/>
<path d="M14907 15793 c-6 -20 -30 -185 -47 -333 -7 -52 -21 -162 -32 -245
-25 -183 -27 -398 -5 -615 9 -85 23 -231 32 -325 26 -278 51 -399 144 -700 94
-306 96 -318 94 -660 -3 -445 -15 -631 -69 -1033 -39 -293 -34 -398 36 -757
62 -321 104 -557 140 -790 12 -77 30 -189 41 -250 48 -286 48 -398 0 -648
-130 -666 -131 -676 -131 -1047 0 -272 10 -356 62 -525 37 -121 63 -176 81
-169 17 6 81 116 103 174 36 100 43 155 44 335 0 99 5 269 10 377 9 176 14
212 45 325 32 121 40 167 65 376 5 48 14 124 20 170 5 45 14 123 20 172 5 50
18 149 27 220 31 245 19 367 -57 580 -40 111 -49 212 -27 306 9 36 59 159 111
275 52 115 107 250 121 299 39 135 41 227 11 585 -37 447 -44 538 -56 690 -24
300 -45 439 -125 835 -78 384 -109 558 -135 750 -5 44 -19 150 -31 235 -31
239 -86 567 -108 646 -17 60 -148 379 -221 539 -30 64 -101 173 -133 203 -23
22 -25 22 -30 5z"/>
<path d="M7050 15694 c0 -23 55 -293 92 -449 31 -131 101 -323 155 -427 27
-49 96 -155 156 -234 115 -154 168 -247 192 -340 31 -118 17 -212 -91 -629
-113 -432 -156 -582 -254 -880 -167 -507 -160 -450 -160 -1223 0 -380 -4 -630
-11 -675 -18 -120 -46 -217 -130 -449 -330 -912 -338 -940 -373 -1258 -9 -74
-25 -211 -35 -305 -11 -93 -27 -233 -36 -310 -8 -77 -24 -212 -35 -300 -11
-88 -27 -223 -36 -300 -30 -248 -20 -690 22 -950 8 -49 29 -135 45 -190 39
-124 235 -615 403 -1002 69 -161 183 -425 252 -585 184 -425 174 -397 395
-1188 137 -492 136 -490 159 -615 36 -198 70 -710 70 -1068 0 -212 9 -294 54
-470 13 -50 30 -107 37 -125 l14 -33 43 68 c90 144 118 229 177 532 14 71 48
212 77 313 28 101 61 219 73 264 13 45 28 129 35 188 12 107 11 136 -15 346
-8 63 -20 156 -26 205 -30 246 -71 393 -204 720 -139 344 -155 425 -155 820 0
395 -9 422 -260 799 -234 353 -274 441 -325 711 -71 382 -84 460 -99 580 -22
180 -46 510 -46 629 0 162 35 499 70 671 10 50 44 191 75 315 112 448 115 475
115 1065 0 500 3 530 71 924 61 354 139 815 154 916 21 133 19 355 -5 505 -35
214 -41 288 -29 374 14 104 53 210 132 354 132 239 172 337 200 487 18 93 40
456 40 665 1 241 -27 302 -334 726 -108 148 -228 316 -269 374 -71 103 -268
352 -342 434 -32 35 -37 38 -38 20z"/>
<path d="M2758 14975 c-3 -6 -9 -26 -12 -45 -60 -358 -143 -705 -207 -864 -71
-179 -140 -296 -400 -670 -152 -221 -298 -530 -387 -826 -40 -133 -132 -563
-224 -1045 -59 -313 -62 -338 -62 -480 0 -168 4 -188 84 -420 111 -323 126
-413 110 -645 -11 -147 -37 -373 -60 -525 -7 -38 -15 -95 -20 -125 -5 -30 -21
-131 -36 -225 -38 -230 -37 -347 6 -555 27 -137 67 -297 77 -309 2 -3 14 6 27
18 46 43 74 130 125 388 65 328 80 376 220 690 79 177 111 296 111 415 0 75
-21 234 -74 553 -49 291 -57 416 -45 659 15 311 32 386 159 721 114 303 174
442 315 735 145 300 168 358 215 536 48 185 75 261 140 384 113 216 138 275
154 352 20 96 20 138 1 230 -9 40 -20 100 -25 133 -5 33 -20 127 -34 209 -14
82 -33 210 -42 285 -21 180 -96 458 -116 426z"/>
<path d="M6391 13278 c-75 -227 -99 -353 -151 -778 -12 -103 -44 -367 -70
-590 -45 -372 -53 -399 -266 -868 -173 -380 -221 -531 -260 -822 -29 -222 -12
-611 36 -792 56 -215 249 -676 320 -768 25 -31 35 -18 46 55 11 77 8 550 -5
645 -22 169 -25 385 -7 580 30 321 60 447 166 680 163 361 287 751 396 1250
77 353 74 503 -26 1085 -47 270 -98 475 -120 475 -5 0 -31 -69 -59 -152z"/>
<path d="M570 12640 c-16 -31 -47 -137 -65 -225 -14 -70 -25 -155 -75 -565 -5
-47 -17 -143 -25 -215 -9 -71 -27 -191 -41 -265 -24 -126 -45 -217 -155 -670
-31 -127 -44 -203 -47 -276 -5 -124 8 -186 82 -396 30 -84 71 -207 91 -273 21
-66 89 -280 153 -475 117 -360 183 -531 226 -585 l24 -30 5 25 c44 208 48 563
11 826 -9 64 14 253 52 434 83 388 88 461 54 760 -10 96 -26 243 -35 325 -8
83 -20 188 -25 235 -27 237 -48 453 -70 740 -6 74 -20 190 -31 258 -26 160
-94 392 -114 392 -2 0 -9 -9 -15 -20z"/>
<path d="M8731 12422 c-22 -41 -121 -352 -138 -432 -14 -70 -18 -137 -18 -380
0 -440 27 -680 114 -1022 52 -204 112 -388 188 -578 40 -100 47 -127 51 -206
6 -117 -9 -169 -97 -344 -231 -457 -259 -594 -175 -865 109 -354 119 -446 78
-705 -16 -97 -64 -258 -105 -346 -24 -52 -60 -118 -208 -382 -173 -309 -235
-452 -277 -642 -22 -102 -22 -303 0 -390 31 -118 136 -450 266 -845 71 -214
161 -487 200 -605 39 -118 77 -226 84 -239 l13 -23 22 30 c57 81 91 218 91
369 0 54 -7 197 -15 318 -8 121 -19 285 -25 365 -5 80 -14 219 -21 310 -21
298 0 487 96 865 93 363 153 514 335 830 129 224 213 400 278 580 164 454 166
465 166 830 1 306 -4 361 -60 625 -75 360 -110 470 -215 684 -117 237 -149
349 -174 601 -24 252 -38 328 -110 640 -48 205 -64 260 -180 610 -75 227 -130
365 -146 365 -5 0 -13 -8 -18 -18z"/>
<path d="M4982 10023 c-12 -2 -44 -25 -72 -51 -41 -39 -68 -85 -168 -283 -167
-331 -234 -429 -460 -679 -243 -267 -364 -468 -460 -760 -102 -310 -105 -435
-16 -612 30 -60 60 -97 173 -208 77 -77 172 -160 219 -192 152 -103 302 -244
427 -403 118 -149 253 -295 574 -618 196 -197 367 -365 381 -372 22 -11 29
-31 63 -175 60 -251 123 -360 342 -589 210 -220 258 -286 536 -741 267 -439
256 -411 494 -1165 75 -236 166 -502 202 -590 126 -308 185 -445 193 -445 12
0 55 116 79 210 30 124 42 275 30 398 -18 193 -52 311 -165 580 -148 350 -170
438 -184 722 -5 107 -12 222 -15 254 -9 87 -48 200 -99 286 -42 72 -469 588
-640 775 -206 224 -285 346 -342 524 -65 204 -98 256 -320 496 -113 122 -101
106 -264 348 -205 306 -320 415 -578 554 -81 43 -155 81 -164 85 -34 14 -155
94 -223 147 -105 82 -265 249 -307 321 -20 35 -44 93 -52 131 -21 89 -10 145
54 276 89 186 169 290 410 538 316 325 373 426 435 765 28 155 32 416 7 457
-9 15 -57 23 -90 16z"/>
<path d="M1031 8978 c-123 -331 -243 -752 -276 -975 -20 -138 -20 -450 0 -558
28 -145 77 -270 225 -566 80 -161 123 -231 244 -399 49 -69 119 -168 154 -220
89 -132 207 -375 228 -469 10 -42 21 -80 25 -84 10 -12 43 39 67 103 11 31 30
103 42 159 27 125 23 184 -20 312 -38 113 -72 180 -182 357 -109 177 -178 312
-212 419 -45 143 -95 450 -116 708 -6 77 -15 193 -21 257 -5 64 -9 188 -9 275
0 193 -14 352 -41 456 -26 104 -79 247 -90 247 -5 0 -13 -10 -18 -22z"/>
<path d="M15258 7458 c-9 -13 -37 -66 -63 -118 -26 -52 -72 -137 -103 -190
-113 -195 -289 -555 -325 -665 -44 -135 -54 -224 -67 -565 -6 -146 -15 -308
-19 -360 -26 -280 -33 -417 -28 -530 10 -215 71 -573 162 -945 71 -296 77
-331 77 -460 0 -99 -7 -156 -40 -325 -43 -223 -57 -343 -72 -635 -24 -458 -13
-523 143 -865 107 -237 213 -447 342 -680 326 -589 318 -569 431 -1053 l16
-67 84 0 84 0 0 498 0 499 -26 64 c-103 252 -296 814 -333 969 -35 148 -39
171 -70 380 -72 484 -71 471 -77 955 -5 502 -10 570 -64 888 -54 325 -87 560
-110 782 -16 150 -30 798 -19 885 8 74 16 103 98 405 61 227 112 508 118 655
5 108 2 136 -16 205 -23 84 -75 234 -96 273 l-12 24 -15 -24z"/>
<path d="M3190 6966 c0 -10 69 -145 113 -221 22 -38 88 -142 146 -230 87 -132
128 -182 231 -286 69 -70 162 -152 208 -184 101 -70 226 -192 291 -286 34 -48
79 -143 149 -311 120 -290 158 -411 211 -675 80 -399 112 -540 137 -617 32
-98 98 -238 123 -260 18 -16 19 -13 32 101 17 149 18 564 0 698 -52 413 -132
747 -295 1233 -98 291 -127 345 -256 465 -84 78 -68 69 -740 415 -91 47 -169
88 -175 93 -5 4 -39 18 -75 32 -36 14 -73 28 -82 32 -10 4 -18 4 -18 1z"/>
<path d="M12093 6912 c-41 -53 -57 -78 -265 -412 -261 -421 -276 -462 -302
-821 -36 -489 -39 -578 -27 -815 19 -381 12 -519 -33 -684 -32 -119 -142 -445
-213 -630 -127 -330 -146 -412 -163 -690 -12 -204 -2 -364 35 -564 46 -247 94
-491 121 -616 23 -104 27 -152 28 -280 1 -85 -4 -191 -11 -235 -7 -44 -17
-120 -24 -170 -10 -86 -76 -423 -157 -812 l-38 -183 167 0 168 0 5 47 c14 115
39 227 77 348 43 137 98 333 231 815 79 286 82 299 86 425 5 145 0 171 -63
385 -85 287 -107 438 -108 725 0 269 14 363 109 710 41 151 157 508 203 622
65 165 96 331 116 633 9 129 20 296 25 370 5 74 14 205 20 290 6 85 15 216 20
290 5 74 14 207 20 295 6 88 14 214 20 280 10 133 12 223 11 523 -1 115 -5
202 -10 202 -5 0 -27 -22 -48 -48z"/>
<path d="M477 6303 c38 -220 78 -369 124 -463 46 -91 115 -166 402 -433 88
-83 143 -143 181 -200 67 -102 143 -254 186 -372 95 -263 188 -380 520 -652
78 -64 194 -191 262 -287 21 -30 78 -140 126 -243 48 -103 108 -217 132 -253
64 -96 259 -285 365 -355 165 -109 348 -216 364 -213 22 4 26 57 11 141 -14
79 -66 164 -170 282 -71 79 -125 160 -195 290 -54 102 -83 145 -227 353 -274
395 -394 532 -624 715 -156 123 -262 243 -327 372 -13 28 -48 129 -77 225
-101 338 -166 436 -460 689 -74 64 -184 163 -245 221 -181 173 -350 320 -367
320 -3 0 5 -62 19 -137z"/>
<path d="M630 4803 c0 -51 64 -236 181 -520 279 -677 299 -739 349 -1077 11
-72 27 -176 35 -230 31 -202 20 -321 -55 -626 -63 -256 -76 -340 -120 -770
-11 -107 -25 -233 -30 -280 -5 -47 -14 -220 -20 -385 -14 -393 -26 -553 -50
-670 -20 -98 -46 -202 -56 -230 -5 -13 26 -15 270 -15 l275 0 10 38 c5 20 15
57 21 82 35 132 92 452 102 570 12 140 12 129 -33 795 -5 83 -14 197 -19 255
-26 274 -5 408 106 691 112 285 120 392 61 815 -49 351 -60 394 -136 541 -65
123 -384 547 -481 638 -18 17 -72 78 -120 136 -80 94 -160 173 -244 237 -35
27 -46 28 -46 5z"/>
<path d="M13956 4048 c-44 -58 -76 -145 -141 -383 -189 -693 -198 -739 -215
-1151 -15 -378 -19 -355 181 -1119 53 -199 53 -201 53 -355 1 -143 -2 -169
-38 -335 -39 -187 -99 -404 -161 -584 -19 -58 -35 -109 -35 -113 0 -4 161 -8
359 -8 l358 0 16 83 c9 45 40 201 69 347 51 258 52 270 52 440 1 147 -4 202
-27 340 -58 341 -80 433 -190 790 -65 214 -84 330 -112 705 -15 201 -30 403
-40 510 -2 28 -9 122 -15 210 -16 234 -28 343 -56 505 -14 80 -27 146 -29 148
-2 2 -15 -12 -29 -30z"/>
<path d="M5103 3688 c13 -24 50 -92 82 -153 71 -134 96 -175 154 -244 55 -66
235 -224 404 -355 126 -97 215 -184 295 -288 87 -114 381 -695 542 -1074 136
-320 179 -410 251 -527 131 -210 356 -467 497 -567 86 -61 276 -170 296 -170
13 0 -1 208 -18 262 -19 59 -101 221 -131 257 -55 66 -210 310 -268 422 -80
155 -128 288 -178 499 -82 350 -161 525 -352 779 -217 289 -495 565 -882 875
-251 202 -294 226 -485 271 -63 15 -137 33 -164 41 -69 20 -70 19 -43 -28z"/>
<path d="M2510 2625 c0 -3 15 -45 34 -93 62 -158 81 -261 91 -482 6 -131 4
-177 -15 -300 -41 -279 -74 -422 -164 -708 -69 -216 -78 -262 -79 -402 0 -122
27 -317 80 -563 l17 -77 170 2 170 3 7 30 c3 17 16 75 28 130 11 55 28 132 36
170 24 111 52 285 79 490 36 265 54 399 66 475 33 208 41 300 41 472 0 175 -2
193 -26 265 -45 134 -155 311 -267 428 -50 54 -90 84 -146 113 -80 41 -122 58
-122 47z"/>
<path d="M8351 2580 c-18 -27 -47 -88 -63 -137 -27 -77 -31 -101 -30 -198 0
-117 42 -450 119 -950 14 -91 17 -160 13 -395 -9 -602 -7 -780 13 -842 l18
-58 309 0 c171 0 310 1 310 3 0 1 -29 86 -65 187 -134 381 -145 446 -145 918
0 462 -4 484 -177 882 -84 192 -203 498 -203 520 0 14 -47 107 -58 114 -4 2
-23 -17 -41 -44z"/>
<path d="M10586 1631 c-26 -49 -93 -223 -114 -296 -12 -38 -35 -135 -52 -215
-17 -80 -38 -176 -46 -215 -23 -108 -62 -235 -121 -399 -62 -170 -118 -366
-128 -449 l-7 -57 196 0 196 0 0 78 c0 100 26 214 99 436 80 243 99 319 116
466 11 95 13 145 5 205 -19 150 -102 475 -121 475 -5 0 -15 -13 -23 -29z"/>
<path d="M0 498 l0 -498 89 0 89 0 8 68 c10 92 -11 324 -41 455 -26 118 -93
343 -124 422 l-20 50 -1 -497z"/>
<path d="M4210 918 c-45 -47 -95 -129 -122 -204 -18 -47 -23 -87 -26 -198 -2
-76 1 -173 7 -215 5 -42 16 -127 23 -188 l12 -113 187 0 187 0 -9 36 c-6 19
-40 119 -76 222 -126 362 -133 388 -141 561 l-7 135 -35 -36z"/>
</g>
</svg>
